 <svg  version="1.0" xmlns="http://www.w3.org/2000/svg"  width="300.000000pt" height="300.000000pt" viewBox="0 0 300.000000 300.000000"  preserveAspectRatio="xMidYMid meet">  <g transform="translate(0.000000,300.000000) scale(0.100000,-0.100000)" fill="#dde" stroke="none"> <path d="M1035 2989 c-267 -33 -496 -146 -690 -343 -114 -114 -201 -238 -251 -358 -134 -317 -123 -692 28 -993 125 -250 371 -476 623 -574 136 -54 225 -71 390 -78 213 -8 412 35 585 127 l75 40 402 -402 403 -403 200 200 200 200 -402 402 -402 403 37 75 c92 182 127 332 127 538 0 199 -34 355 -111 511 -164 329 -482 575 -829 640 -103 20 -287 27 -385 15z m293 -454 c214 -44 416 -201 512 -400 55 -115 73 -210 68 -353 -8 -200 -69 -336 -217 -482 -95 -94 -175 -142 -301 -181 -108 -34 -302 -34 -410 0 -131 40 -206 86 -311 191 -143 143 -204 275 -216 469 -5 97 13 213 47 304 47 125 172 274 295 353 159 101 347 136 533 99z"/> </g> </svg> 